# xmcd
#
# Track frame offsets:
#	150
#	22512
#	41300
#
# Disc length: 695 seconds
#
# Revision: 1
# Processed by: cddbd v1.5.1PL0 Copyright (c) Steve Scherf et al.
# Submitted via: CDex 1.50Beta5
#
DISCID=0f02b503
DTITLE=Dissident Prophet - Unconditional Love
DYEAR=1900
DGENRE=Rock
TTITLE0=ロスト バタフライ
TTITLE1=僕らの箱庭
TTITLE2=エレメンツ (Load Star Melody)
EXTD=
EXTT0=
EXTT1=
EXTT2=
PLAYORDER=
